<svg viewBox="-61 0 512 512" xmlns="http://www.w3.org/2000/svg"><path fill="#BCE784" d="m195 392c30.878906 0 59.03125-29.972656 71.207031-45-12.175781-15.027344-40.328125-45-71.207031-45s-59.03125 29.972656-71.207031 45c12.175781 15.027344 40.328125 45 71.207031 45zm-15-60h30v30h-30zm0 0"/><path fill="#fff" d="m105 60c-16.570312 0-30 13.429688-30 30v98.921875c-9.460938-4.320313-19.871094-6.921875-30.9375-6.921875h-44.0625c5.128906 16.941406 30 46.269531 30 140.492188v24.507812c0 92.691406 72.332031 165 165.953125 165 87.988281 0 164.046875-69.378906 164.046875-165v-24.507812c0-93.894532 25.101562-124.3125 30-140.492188h-44.0625c-11.066406 0-21.476562 2.605469-30.9375 6.921875v-98.921875c0-16.570312-13.433594-30-30-30-16.570312 0-30 13.429688-30 30 0 15.609375 0 156.273438 0 152h-30c0-6.441406 0-216.484375 0-212 0-16.570312-13.433594-30-30-30-16.570312 0-30 13.429688-30 30 0 4.953125 0 215.511719 0 212h-30c0-15.238281 0-155.722656 0-152 0-16.570312-13.429688-30-30-30zm90 212c44.597656 0 82.566406 37.507812 108.074219 75-25.398438 37.328125-63.511719 75-108.074219 75-44.597656 0-82.566406-37.511719-108.074219-75 25.398438-37.328125 63.511719-75 108.074219-75zm0 0"/></svg>