<svg id="Capa_1" enable-background="new 0 0 512 512" height="512" viewBox="0 0 512 512" width="512" xmlns="http://www.w3.org/2000/svg"><circle cx="467" cy="45" r="15"/><path fill="#F4F4FF" d="m257 512c111.999 0 207.212-73.213 241.418-174.356 2.137-6.319-.155-13.289-5.625-17.106-5.471-3.817-12.803-3.564-17.997.622-32.341 26.063-71.345 39.84-112.796 39.84-99.804 0-181-80.748-181-180 0-61.371 32.685-120.091 85.3-153.243 5.643-3.556 8.26-10.41 6.423-16.822-1.802-6.289-7.464-10.67-13.974-10.862-.356-.027-.989-.073-1.749-.073-140.874 0-257 114.957-257 256 0 140.992 116.068 256 257 256zm-46.436-477.247c-38.416 39.855-59.564 92.385-59.564 146.247 0 115.794 94.654 210 211 210 30.463 0 60.542-6.738 87.993-19.419-40.087 67.52-112.846 110.419-192.993 110.419-125.168 0-227-101.383-227-226 0-108.781 77.585-199.856 180.564-221.247z"/><path fill="#F4F4FF" d="m287 120c24.392 0 45 21.065 45 46 0 8.284 6.716 15 15 15s15-6.716 15-15c0-24.935 20.607-46 45-46 8.284 0 15-6.716 15-15s-6.716-15-15-15c-24.813 0-45-20.187-45-45 0-8.284-6.716-15-15-15s-15 6.716-15 15c0 24.813-20.187 45-45 45-8.284 0-15 6.716-15 15s6.716 15 15 15zm60-30.052c4.331 5.766 9.472 10.891 15.253 15.203-5.783 4.409-10.865 9.568-15.253 15.48-4.387-5.911-9.468-11.069-15.253-15.48 5.782-4.312 10.922-9.437 15.253-15.203z"/><circle cx="497" cy="166" r="15"/></svg>